<?xml version="1.0" encoding="UTF-8" standalone="no"?>
<!-- Created with Inkscape (http://www.inkscape.org/) -->

<svg
   xmlns:dc="http://purl.org/dc/elements/1.1/"
   xmlns:cc="http://creativecommons.org/ns#"
   xmlns:rdf="http://www.w3.org/1999/02/22-rdf-syntax-ns#"
   xmlns:svg="http://www.w3.org/2000/svg"
   xmlns="http://www.w3.org/2000/svg"
   xmlns:xlink="http://www.w3.org/1999/xlink"
   xmlns:sodipodi="http://sodipodi.sourceforge.net/DTD/sodipodi-0.dtd"
   xmlns:inkscape="http://www.inkscape.org/namespaces/inkscape"
   width="210mm"
   height="297mm"
   viewBox="0 0 210 297"
   version="1.1"
   id="svg8"
   inkscape:version="0.92.3 (2405546, 2018-03-11)"
   sodipodi:docname="logoCompleto.svg">
  <defs
     id="defs2">
    <linearGradient
       inkscape:collect="always"
       id="linearGradient874">
      <stop
         style="stop-color:#d89362;stop-opacity:1;"
         offset="0"
         id="stop870" />
      <stop
         style="stop-color:#d89362;stop-opacity:0;"
         offset="1"
         id="stop872" />
    </linearGradient>
    <radialGradient
       inkscape:collect="always"
       xlink:href="#linearGradient874"
       id="radialGradient878"
       cx="-157.43938"
       cy="164.0504"
       fx="-157.43938"
       fy="164.0504"
       r="36.739319"
       gradientTransform="matrix(2.0905456,0.00350948,-0.00352856,2.1019165,309.68033,-192.19707)"
       gradientUnits="userSpaceOnUse" />
  </defs>
  <sodipodi:namedview
     id="base"
     pagecolor="#ffffff"
     bordercolor="#666666"
     borderopacity="1.0"
     inkscape:pageopacity="0.0"
     inkscape:pageshadow="2"
     inkscape:zoom="0.7"
     inkscape:cx="56.238926"
     inkscape:cy="422.39646"
     inkscape:document-units="mm"
     inkscape:current-layer="layer1"
     showgrid="false"
     showborder="false"
     inkscape:window-width="1366"
     inkscape:window-height="705"
     inkscape:window-x="-8"
     inkscape:window-y="-8"
     inkscape:window-maximized="1" />
  <metadata
     id="metadata5">
    <rdf:RDF>
      <cc:Work
         rdf:about="">
        <dc:format>image/svg+xml</dc:format>
        <dc:type
           rdf:resource="http://purl.org/dc/dcmitype/StillImage" />
        <dc:title></dc:title>
      </cc:Work>
    </rdf:RDF>
  </metadata>
  <g
     inkscape:label="Camada 1"
     inkscape:groupmode="layer"
     id="layer1">
    <g
       id="g891"
       inkscape:export-xdpi="99.099998"
       inkscape:export-ydpi="99.099998">
      <path
         inkscape:connector-curvature="0"
         id="path860"
         d="m -39.215912,176.76131 c -2.45128,-1.79178 -5.9855,-5.43744 -7.41807,-7.65196 -0.98571,-1.52376 -3.0011,-5.19259 -3.10466,-5.65177 -0.0159,-0.0705 -0.29434,-0.93646 -0.61871,-1.92424 -1.01196,-3.0816 -1.30627,-4.76087 -1.46138,-8.33838 -0.25014,-5.76905 0.65962,-9.79864 3.41753,-15.13738 3.95541,-7.65682 10.91398,-13.22224 19.12445,-15.29561 3.21402,-0.81163 8.96741,-1.10406 12.30511,-0.62543 2.84051,0.40732 7.04638,1.83196 9.56987,3.24156 2.84248,1.58779 3.08543,1.76019 5.3878803,3.82342 l 0.76969,0.68973 -1.4111103,-0.77012 c -1.72357,-0.94065 -4.22764,-1.93087 -6.28586,-2.48572 -0.84666,-0.22824 -1.71257,-0.48222 -1.92424,-0.5644 -0.21167,-0.0822 -0.73121,-0.18518 -1.15455,-0.22888 -0.42333,-0.0437 -1.23151,-0.1542 -1.79595,-0.24552 -1.2311,-0.1992 -5.49207,-0.20794 -6.92728,-0.0142 -2.14353,0.28934 -2.62698,0.39364 -4.83108,1.04233 -5.9983,1.76534 -10.86016,4.85663 -14.54443,9.24768 -2.3769,2.83288 -3.37932,4.48714 -4.68768,7.73588 -1.40056,3.47767 -1.87286,5.36532 -2.23413,8.92922 -0.34152,3.36894 -0.033,7.15226 0.87403,10.71985 1.32823,5.22401 3.32798,8.77354 7.45308,13.22914 0.81235,0.87743 1.4357,1.5936 1.38522,1.59147 -0.0505,-0.002 -0.89996,-0.59462 -1.88773,-1.31665 z m 16.93333,0.78385 c -2.66805,-0.28136 -4.18545,-0.64588 -6.54243,-1.57166 -5.62697,-2.21016 -11.06381,-7.353 -13.64979,-12.91166 -1.73505,-3.72956 -2.10474,-5.56614 -2.11524,-10.5083 -0.0101,-4.74086 0.16308,-5.72075 1.72291,-9.74949 2.52025,-6.50931 8.3828,-12.00199 15.06839,-14.11772 0.77611,-0.24561 1.52134,-0.51034 1.65607,-0.5883 0.13473,-0.0779 0.53882,-0.17893 0.89798,-0.2244 1.09446,-0.13856 1.41013,-0.21352 1.72308,-0.40917 0.8253,-0.51595 8.57102,-0.26539 9.13181,0.2954 0.11691,0.11691 -1.26477,0.21559 -3.07041,0.21929 -6.94167,0.0142 -12.28244,2.19604 -16.65081,6.80226 -4.37808,4.61645 -6.23472,9.3102 -6.23857,15.77167 -10e-4,1.80581 0.041,3.62966 0.0935,4.05299 0.16251,1.31017 1.43223,5.00303 1.72018,5.00303 0.15007,0 0.2041,0.17918 0.12006,0.39817 -0.084,0.219 -0.0488,0.3339 0.0783,0.25535 0.12711,-0.0786 0.59876,0.32138 1.04812,0.88873 0.89234,1.12668 3.05761,2.86686 4.87248,3.9159 0.92227,0.53311 4.18721,1.76837 5.51616,2.08701 3.74324,0.89749 6.31953,0.80513 10.00606,-0.3587 4.53226,-1.43082 8.20092,-4.18574 10.7709,-8.0882 2.34906,-3.56702 3.21193,-6.54049 3.21193,-11.06842 0,-2.85266 0.27203,-2.78101 -3.46364,-0.91239 -1.27,0.63527 -2.68432,1.3355 -3.14293,1.55608 -0.45861,0.22058 -0.83384,0.49246 -0.83384,0.60417 0,0.11171 -0.13649,0.20311 -0.30332,0.20311 -0.40492,0 -5.83547,3.65391 -7.77516,5.23147 -0.8485,0.69009 -2.68115,2.36418 -4.07255,3.7202 -2.76573,2.6954 -2.82298,2.46281 -0.23371,-0.94943 3.70076,-4.87701 8.76063,-10.54339 9.43424,-10.5651 0.14111,-0.005 0.83384,-0.54778 1.53939,-1.20719 1.46009,-1.36458 4.38165,-3.67036 4.65056,-3.67036 0.33868,0 2.66156,-1.59296 2.66156,-1.82521 0,-0.12779 -0.22499,-0.42498 -0.49998,-0.66044 -0.275,-0.23545 -0.44137,-0.52296 -0.36971,-0.6389 0.0717,-0.11594 0.008,-0.2108 -0.14143,-0.2108 -0.14944,0 -0.2717,-0.12031 -0.2717,-0.26735 0,-0.86659 -3.6283,-4.98149 -5.58031,-6.32871 -0.74083,-0.5113 -1.34697,-0.96983 -1.34697,-1.01897 0,-0.25055 3.39149,1.6702 4.61818,2.61548 1.59161,1.22649 3.66658,3.3808 4.60815,4.78434 l 0.63015,0.93934 1.2404703,-0.62859 c 2.55861002,-1.29655 7.49,-3.37674 8.40204,-3.54421 0.21167,-0.0389 0.73121,-0.21194 1.15455,-0.38461 2.5798197,-1.05227 12.4975597,-2.90665 12.9452597,-2.42046 0.25832,0.28053 0.84259,6.45965 0.64155,6.78494 -0.0811,0.13117 -0.86218,0.24061 -1.73579,0.2432 -0.87362,0.003 -2.74294,0.16955 -4.15405,0.37105 -2.90642,0.41501 -9.9274697,2.14006 -10.1578597,2.49576 -0.0835,0.1289 -0.25667,0.20962 -0.38485,0.17939 -0.12818,-0.0302 -0.52169,0.0628 -0.87446,0.20669 -0.35278,0.14391 -1.59236,0.59551 -2.75463,1.00355 -1.55511998,0.54596 -2.08383998,0.84352 -2.00199998,1.12674 0.41212,1.42628 0.69908,5.0064 0.5534,6.90412 -0.42755,5.56945 -2.40327032,9.74924 -6.40518032,13.55067 -7.21048,6.84924 -17.63919,7.59105 -26.09403,1.8561 -1.52246,-1.03269 -3.972,-3.53746 -5.04475,-5.15848 -0.91621,-1.3845 -1.03463,-1.23451 -0.18151,0.22991 3.06361,5.25885 8.18968,9.28657 13.59303,10.68045 8.20015,2.11537 16.23413,0.0757 22.3287703,-5.66887 0.48157,-0.4539 0.87558002,-0.92669 0.87558002,-1.05064 0,-0.12394 0.23317,-0.43636 0.51815,-0.69427 0.87002,-0.78736 3.28179998,-4.80844 3.95204998,-6.58912 1.01353,-2.6927 1.5071,-5.86635 1.36807,-8.79655 -0.0926,-1.95075 -0.0566,-2.4098 0.15096,-1.92424 0.15396,0.36026 0.27044,2.36775 0.26774,4.61445 -0.004,3.48498 -0.0887,4.28856 -0.68373,6.49802 -1.12401,4.174 -2.86736,7.32913 -5.80106,10.49883 -5.6398503,6.09353 -13.1494503,8.97155 -21.1954103,8.12305 z"
         style="fill:url(#radialGradient878);fill-opacity:1;stroke-width:0.25656566" />
      <text
         transform="scale(0.92999976,1.0752691)"
         id="text882"
         y="187.49821"
         x="-85.647873"
         style="font-style:normal;font-variant:normal;font-weight:normal;font-stretch:normal;font-size:20.8337841px;line-height:8.13819695px;font-family:'Great Vibes';-inkscape-font-specification:'Great Vibes';letter-spacing:0px;word-spacing:0px;fill:#d89362;fill-opacity:0.92941176;stroke:none;stroke-width:0.32552788"
         xml:space="preserve"><tspan
           style="fill:#d89362;fill-opacity:0.92941176;stroke-width:0.32552788"
           y="187.49821"
           x="-85.647873"
           id="tspan880"
           sodipodi:role="line">Dr. Jair Fonseca</tspan></text>
    </g>
  </g>
</svg>
